<svg xmlns="http://www.w3.org/2000/svg" width="60" height="60" viewBox="0 0 60 60"><defs><clipPath id="2tqua"><path fill="#fff" d="M30-.11c16.569 0 30 13.432 30 30 0 16.57-13.431 30-30 30-16.569 0-30-13.43-30-30 0-16.568 13.431-30 30-30z"/></clipPath></defs><g><g opacity=".1"><path fill="#cd3944" d="M30-.11c16.569 0 30 13.432 30 30 0 16.57-13.431 30-30 30-16.569 0-30-13.43-30-30 0-16.568 13.431-30 30-30z"/><path fill="none" stroke="#000" stroke-linecap="round" stroke-linejoin="round" stroke-miterlimit="50" stroke-width="4" d="M30-.11c16.569 0 30 13.432 30 30 0 16.57-13.431 30-30 30-16.569 0-30-13.43-30-30 0-16.568 13.431-30 30-30z" clip-path="url(&quot;#2tqua&quot;)"/></g><g opacity=".2"><g><text dominant-baseline="text-before-edge" style="text-transform:uppercase;line-height:8.46624px" font-family="'Gilroy-ExtraBold','Gilroy-ExtraBold'" font-size="4.94" font-style="none" font-weight="400" transform="translate(16 24)"><tspan style="font-kerning:normal" letter-spacing=".25">NEW</tspan></text></g></g></g></svg>